# xmcd
#
# Track frame offsets:
#	150
#	27645
#	48200
#	74914
#	108737
#	136314
#	166146
#	210239
#	230202
#	250747
#	285517
#
# Disc length: 3929 seconds
#
# Revision: 0
# Processed by: cddbd v1.4PL0 Copyright (c) Steve Scherf et al.
# Submitted via: EasyCDDAExtractor 5.0.2.1
#
DISCID=a30f570b
DTITLE=Longineu Parsons - Blues For The 21st Century
DYEAR=1900
DGENRE=Blues
TTITLE0=Blues For The 21st Century
TTITLE1=Spoonful
TTITLE2=Hotsauce
TTITLE3=Rumble In The Jungle
TTITLE4=Long Arm Of The Blues
TTITLE5=911-6969
TTITLE6=Blue Romance
TTITLE7=You Only Care About You
TTITLE8=The Wind Cries Mary
TTITLE9=Bad Feeling
TTITLE10=Calling The Spirits
EXTD=
EXTT0=
EXTT1=
EXTT2=
EXTT3=
EXTT4=
EXTT5=
EXTT6=
EXTT7=
EXTT8=
EXTT9=
EXTT10=
PLAYORDER=
